<?xml version="1.0" encoding="UTF-8"?>
<svg width="60px" height="60px" viewBox="0 0 60 60" version="1.1" xmlns="http://www.w3.org/2000/svg" xmlns:xlink="http://www.w3.org/1999/xlink">
    <!-- Generator: Sketch 51.2 (57519) - http://www.bohemiancoding.com/sketch -->
    <title>nbl hover state</title>
    <desc>Created with Sketch.</desc>
    <defs>
        <polygon id="path-1" points="0 0.0717391304 59.9666739 0.0717391304 59.9666739 60 0 60"></polygon>
    </defs>
    <g id="Symbols" stroke="none" stroke-width="1" fill="none" fill-rule="evenodd">
        <g id="nbl-hover-state">
            <g>
                <g id="Group-3">
                    <path d="M3,20.9550465 C8.332751,13.2567551 18.4403155,8.03540309 30.0202151,8.03540309 C41.5603584,8.03540309 51.6679228,13.2567551 57,21 C52.5829943,9.27462196 42.1573785,1.00017626 30.0202151,1.00017626 C17.8830517,0.955971963 7.45743592,9.23041766 3,20.9550465" id="Fill-3" fill="#F47C30"></path>
                    <path d="M3,58.9550465 C8.332751,51.2567551 18.4403155,46.0354031 30.0202151,46.0354031 C41.5603584,46.0354031 51.6679228,51.2567551 57,59 C52.5829943,47.274622 42.1573785,39.0001763 30.0202151,39.0001763 C17.8830517,38.955972 7.45743592,47.2304177 3,58.9550465" id="Fill-3-Copy" fill="#F47C30" transform="translate(30.000000, 49.000000) scale(1, -1) translate(-30.000000, -49.000000) "></path>
                    <mask id="mask-2" fill="white">
                        <use xlink:href="#path-1"></use>
                    </mask>
                    <g id="Clip-2"></g>
                    <path d="M59.9666739,30.0358696 C59.9666739,13.5136957 46.5253696,0.0717391304 30.0025435,0.0717391304 C13.4412391,0.0332608696 -6.52173913e-05,13.4745652 -6.52173913e-05,30.0358696 C-6.52173913e-05,46.5971739 13.4412391,60 29.9640652,60 C46.5253696,60 59.9666739,46.5586957 59.9666739,30.0358696 M3.85167391,40.9356522 C9.01232609,47.6367391 18.7949348,52.1817391 29.9640652,52.1817391 C41.1331957,52.1817391 50.9158043,47.6367391 56.0764565,40.9356522 C51.8014565,51.1415217 41.7110217,58.3441304 29.9640652,58.3441304 C18.255587,58.3441304 8.16515217,51.1415217 3.85167391,40.9356522 M56.115587,19.0982609 C50.9542826,12.3580435 41.1716739,7.81304348 30.0025435,7.81304348 C18.833413,7.81304348 9.05080435,12.3580435 3.89015217,19.0982609 C8.16515217,8.89173913 18.255587,1.68978261 30.0025435,1.68978261 C41.7110217,1.68978261 51.840587,8.89173913 56.115587,19.0982609 M58.2716739,28.9193478 L45.2927609,28.9193478 L45.2927609,30.6136957 L58.3108043,30.6136957 C57.848413,41.628913 45.3312391,50.4867391 30.0025435,50.4867391 C14.6738478,50.4867391 2.15667391,41.628913 1.69493478,30.6136957 L11.3236304,30.6136957 L11.3236304,28.9193478 L1.73276087,28.9193478 C2.50363043,18.135 14.9047174,9.50804348 30.0025435,9.50804348 C45.1003696,9.54652174 57.4629783,18.135 58.2716739,28.9193478" id="Fill-1" fill="#000000" mask="url(#mask-2)"></path>
                </g>
                <polygon id="Fill-4" fill="#000000" points="16.762604 28.5406879 16.762604 41.3793103 12.4137931 41.3793103 12.4137931 17.5862069 17.3952435 17.5862069 20.3609504 30.4647194 20.3609504 17.5862069 24.8275862 17.5862069 24.8275862 41.3793103 19.6493146 41.3793103"></polygon>
                <path d="M38.2758621,36.9819709 C38.2758621,40.1626289 36.9534439,41.3793103 34.1084466,41.3793103 L26.8965517,41.3793103 L26.8965517,17.5862069 L34.1084466,17.5862069 C36.9134117,17.5862069 38.2758621,18.8035532 38.2758621,21.9835463 L38.2758621,24.653597 C38.2758621,27.4021004 37.4345083,28.6187818 35.5509613,28.9724837 C37.4345083,29.2862945 38.2758621,30.5036408 38.2758621,33.2521442 L38.2758621,36.9819709 Z M33.3471571,21.94432 C33.3471571,21.35526 32.9868677,21.0806756 32.5858676,21.0806756 L31.7445138,21.0806756 L31.7445138,27.2053038 L32.5458355,27.2053038 C32.9068034,27.2053038 33.3471571,26.8914931 33.3471571,26.3808858 L33.3471571,21.94432 Z M33.3471571,31.6425344 C33.3471571,31.0927008 32.9468356,30.8181164 32.5458355,30.8181164 L31.7445138,30.8181164 L31.7445138,37.8848416 L32.5858676,37.8848416 C32.9468356,37.8848416 33.3471571,37.5710309 33.3471571,37.0218621 L33.3471571,31.6425344 Z" id="Fill-6" fill="#000000"></path>
                <polygon id="Fill-8" fill="#000000" points="39.3103448 17.5862069 44.1186334 17.5862069 44.1186334 37.6495878 47.5862069 37.6495878 47.5862069 41.3793103 39.3103448 41.3793103"></polygon>
            </g>
        </g>
    </g>
</svg>