<?xml version="1.0" encoding="UTF-8"?>
<svg width="60px" height="59px" viewBox="0 0 60 59" version="1.1" xmlns="http://www.w3.org/2000/svg" xmlns:xlink="http://www.w3.org/1999/xlink">
    <!-- Generator: Sketch 51.2 (57519) - http://www.bohemiancoding.com/sketch -->
    <title>ncaa</title>
    <desc>Created with Sketch.</desc>
    <defs>
        <polygon id="path-1" points="0 0.113920213 58.886017 0.113920213 58.886017 59 0 59"></polygon>
    </defs>
    <g id="Homepage-Design" stroke="none" stroke-width="1" fill="none" fill-rule="evenodd">
        <g id="GSG-homepage-desktop" transform="translate(-1018.000000, -928.000000)">
            <g id="Partners" transform="translate(200.000000, 916.000000)">
                <g id="ncaa" transform="translate(818.000000, 12.000000)">
                    <g id="Group-3">
                        <mask id="mask-2" fill="white">
                            <use xlink:href="#path-1"></use>
                        </mask>
                        <g id="Clip-2"></g>
                        <path d="M52.0332298,43.2113489 L51.8166872,41.2138223 L46.2716287,41.2138223 L45.048634,43.1896947 L40.2423309,43.1896947 L40.1328043,41.2138223 L34.7117085,41.2138223 L33.3920543,43.2113489 L25.7069904,43.2107213 C23.3334957,43.2107213 21.159283,41.7539234 20.7861394,39.5182 C20.6075702,38.469067 20.6179266,37.4058117 20.7880223,36.3902585 L18.8510649,43.2097798 L14.6168734,43.2113489 C14.6168734,43.2113489 12.3836606,37.8131628 11.8479532,36.5189287 C11.4707298,37.8891096 10.0067138,43.2113489 10.0067138,43.2113489 L6.20215532,43.2113489 L9.15058617,32.4711521 L7.84568191,32.4711521 L8.73852766,29.3046096 L13.4977564,29.3046096 L16.8196447,37.1243064 L18.1427511,32.4642479 L16.8278043,32.4698968 L17.724416,29.2882904 L22.8106553,29.2904872 L21.3221606,34.4429447 C22.2291287,31.8212106 25.2874,29.23745 28.6303149,29.26695 L34.360533,29.2882904 L33.0283255,34.1266043 L29.3226234,34.1266043 C29.3226234,34.1266043 29.620134,33.059583 29.7619851,32.5464713 L28.917783,32.5267 C26.9011128,32.5267 24.9180223,35.5520191 24.9180223,37.6358489 C24.9180223,39.7190511 26.5985809,40.1223223 27.0354319,40.1223223 L31.1968149,40.1389553 L36.2516713,32.4698968 L35.0710436,32.4560883 L35.9507085,29.2882904 L43.6906926,29.2882904 L44.2198096,38.4442745 L47.9860809,32.4698968 L46.8032564,32.4698968 L47.7033202,29.2882904 L55.33315,29.2882904 L56.1933574,41.8703543 C57.9209904,38.1235404 58.886017,33.9533702 58.886017,29.5569287 C58.886017,13.2958383 45.7039106,0.113731915 29.443134,0.113731915 C13.1820436,0.113731915 -6.27659574e-05,13.2958383 -6.27659574e-05,29.5569287 C-6.27659574e-05,45.8180191 13.1820436,59.0001255 29.443134,59.0001255 C40.7736447,59.0001255 50.6078149,52.5983117 55.5305489,43.2160564 L52.0332298,43.2113489 Z" id="Fill-1" fill="#ADB0B4" mask="url(#mask-2)"></path>
                    </g>
                    <polygon id="Fill-4" fill="#ADB0B4" points="52 37 51.8561999 33 49 37"></polygon>
                    <polygon id="Fill-6" fill="#ADB0B4" points="40 37 39.8483163 33 37 37"></polygon>
                    <path d="M57.5872972,44.8570521 L57.5872972,44.1427362 L58.0572463,44.1427362 C58.297653,44.1427362 58.5533812,44.1952304 58.5533812,44.4808439 C58.5533812,44.8358851 58.2920816,44.8570521 57.9995821,44.8570521 L57.5872972,44.8570521 Z M57.5872972,45.1533902 L57.9842607,45.1533902 L58.5848597,46.1530375 L58.9712376,46.1530375 L58.3235601,45.1373033 C58.6578453,45.0949693 58.9138519,44.9157553 58.9138519,44.5022931 C58.9138519,44.0473435 58.6475381,43.8463981 58.1096177,43.8463981 L57.2429835,43.8463981 L57.2429835,46.1530375 L57.5872972,46.1530375 L57.5872972,45.1533902 Z M58.004875,47 C59.0807159,47 60,46.1530375 60,44.9942144 C60,43.8463981 59.0807159,43 58.004875,43 C56.9190055,43 56,43.8463981 56,44.9942144 C56,46.1530375 56.9190055,47 58.004875,47 Z M56.3964064,44.9942144 C56.3964064,44.0473435 57.1014695,43.333592 58.004875,43.333592 C58.8976948,43.333592 59.6030364,44.0473435 59.6030364,44.9942144 C59.6030364,45.9577365 58.8976948,46.666408 58.004875,46.666408 C57.1014695,46.666408 56.3964064,45.9577365 56.3964064,44.9942144 Z" id="Fill-8" fill="#ADB0B4"></path>
                </g>
            </g>
        </g>
    </g>
</svg>