<?xml version="1.0" encoding="UTF-8"?>
<svg width="176px" height="225px" viewBox="0 0 176 225" version="1.1" xmlns="http://www.w3.org/2000/svg" xmlns:xlink="http://www.w3.org/1999/xlink">
    <!-- Generator: Sketch 51.3 (57544) - http://www.bohemiancoding.com/sketch -->
    <title>Group 33</title>
    <desc>Created with Sketch.</desc>
    <defs>
        <polygon id="path-1" points="0 0.015 164.0536 0.015 164.0536 224.9955 0 224.9955"></polygon>
        <polygon id="path-3" points="0.1051 0.1021 12.001 0.1021 12.001 12 0.1051 12"></polygon>
    </defs>
    <g id="Symbols" stroke="none" stroke-width="1" fill="none" fill-rule="evenodd">
        <g id="pga-tour-logo" transform="translate(0.000000, -1.000000)">
            <g id="Group-33">
                <g id="Group-3" transform="translate(0.000000, 0.985000)">
                    <mask id="mask-2" fill="white">
                        <use xlink:href="#path-1"></use>
                    </mask>
                    <g id="Clip-2"></g>
                    <path d="M157.6396,196.8985 C157.6396,208.8725 147.9316,218.5775 135.9606,218.5775 L28.0966,218.5775 C16.1216,218.5775 6.4166,208.8725 6.4166,196.8985 L6.4166,27.7285 C6.4166,15.7575 16.1216,6.0485 28.0966,6.0485 L135.9606,6.0485 C147.9316,6.0485 157.6396,15.7575 157.6396,27.7285 L157.6396,196.8985 Z M135.9606,0.0235 L28.0966,0.0235 C12.5806,-0.3655 -0.0004,12.2115 -0.0004,27.7285 L-0.0004,196.8985 C-0.0004,212.4165 12.5806,224.9955 28.0966,224.9955 L135.9606,224.9955 C151.4776,224.9955 164.0536,212.4165 164.0536,196.8985 L164.0536,27.7285 C164.0536,12.2115 151.4776,-0.3655 135.9606,0.0235 Z" id="Fill-1" fill="#ADB0B4" mask="url(#mask-2)"></path>
                </g>
                <g id="Group-6" transform="translate(164.000000, 213.985000)">
                    <mask id="mask-4" fill="white">
                        <use xlink:href="#path-3"></use>
                    </mask>
                    <g id="Clip-5"></g>
                    <path d="M5.9131,5.6611 C6.8581,5.6611 8.2351,5.8181 8.2351,4.4691 C8.2351,3.4291 7.3861,3.3071 6.5711,3.3071 L4.6731,3.3071 L4.6731,5.6611 L5.9131,5.6611 Z M9.0361,9.3641 L8.0631,9.3641 L6.1641,6.3061 L4.6731,6.3061 L4.6731,9.3641 L3.8571,9.3641 L3.8571,2.7231 L6.7571,2.7231 C8.5171,2.7231 9.1141,3.3861 9.1141,4.4781 C9.1141,5.7871 8.2041,6.2731 7.0281,6.3061 L9.0361,9.3641 Z M11.0601,6.0351 C11.0601,3.1481 8.9601,0.8871 6.0701,0.8871 C3.1631,0.8871 1.0461,3.1481 1.0461,6.0351 C1.0461,8.9611 3.1631,11.2191 6.0701,11.2191 C8.9601,11.2191 11.0601,8.9611 11.0601,6.0351 Z M0.1051,6.0351 C0.1051,2.7721 2.7731,0.1021 6.0701,0.1021 C9.3511,0.1021 12.0011,2.7721 12.0011,6.0351 C12.0011,9.3351 9.3511,12.0001 6.0701,12.0001 C2.7731,12.0001 0.1051,9.3351 0.1051,6.0351 Z" id="Fill-4" fill="#ADB0B4" mask="url(#mask-4)"></path>
                </g>
                <path d="M116.5664,182.1061 C108.7044,189.7301 100.6524,196.5391 92.6514,203.9661 C89.6944,203.2451 88.4334,201.5441 85.5574,200.7501 C79.8034,206.4691 77.3134,207.5751 75.6124,211.7041 C75.4344,212.1351 74.0514,215.8891 73.7274,216.0491 C73.5954,216.1131 73.4244,216.2161 73.1804,216.2691 L114.9264,216.2691 C113.7324,214.4311 113.7974,211.2121 114.2764,209.2731 C114.2424,206.0291 115.3654,193.9091 116.5664,182.1061" id="Fill-7" fill="#ADB0B4"></path>
                <path d="M120.2539,85.904 C120.2539,85.904 112.0229,91.287 112.0829,91.469 C112.5479,92.834 113.5489,95.417 113.6979,95.938 C114.8659,95.184 120.4219,86.877 120.4219,86.877 C120.3609,86.342 120.2539,85.904 120.2539,85.904" id="Fill-9" fill="#ADB0B4"></path>
                <path d="M46.9014,175.7409 L42.9174,175.7389 L42.9174,179.9589 L46.9264,179.9529 C47.8354,179.9529 48.8564,179.1119 48.8564,177.7809 C48.8564,176.6009 48.0334,175.7409 46.9014,175.7409" id="Fill-11" fill="#ADB0B4"></path>
                <path d="M46.5967,190.611 C46.5967,189.72 46.2017,189.605 45.4107,189.605 L42.8587,189.603 L42.8607,193.496 C42.8607,193.496 42.8777,194.119 43.5637,194.119 L46.6067,194.119 C46.5787,193.603 46.6147,192.97 46.6147,192.472 C46.6147,192.472 46.6067,190.845 46.5967,190.611" id="Fill-13" fill="#ADB0B4"></path>
                <path d="M49.4521,141.2125 L43.5131,141.2245 C43.5131,141.2245 42.9131,141.3025 42.9131,141.7045 L42.9131,157.1305 C42.9131,158.2285 44.1431,159.1225 46.5671,159.1225 C48.9911,159.1225 49.9501,158.2245 49.9501,157.1245 C49.9501,155.1075 49.9541,142.1425 49.9541,141.6915 C49.9541,141.2395 49.4521,141.2125 49.4521,141.2125" id="Fill-15" fill="#ADB0B4"></path>
                <path d="M48.335,114.4284 C48.335,105.2254 46.034,105.2254 44.355,105.2254 C43.163,105.2254 40.368,105.2254 40.368,114.4284 C40.368,123.6314 43.062,123.6314 44.355,123.6314 C46.995,123.6314 48.335,120.5344 48.335,114.4284" id="Fill-17" fill="#ADB0B4"></path>
                <path d="M77.3252,37.2321 L81.7542,37.2321 L87.5522,50.5951 C88.2962,52.2271 88.3532,52.6601 90.3242,52.9901 L90.6372,53.0181 L90.6372,55.1041 L80.2372,55.1041 L80.2372,53.0181 C80.8412,52.9421 82.6082,52.9901 82.6082,52.2031 C82.6082,51.8441 82.3232,51.1821 82.2142,50.8291 L81.8212,49.9761 L74.8412,49.9761 L74.4952,50.8291 C74.3522,51.1561 74.1572,51.6691 74.1572,51.9981 C74.1572,52.8891 75.7232,52.8891 76.4092,52.9901 L76.6992,53.0181 L76.6992,55.1041 L67.8682,55.1041 L67.8682,53.0181 C70.3842,52.7881 70.9262,51.3841 71.7822,49.5781 L77.3252,37.2321 Z M65.4292,49.0211 L65.4292,55.2671 L62.8732,55.2671 L62.2272,53.9371 C60.5242,55.1601 58.3452,55.5931 56.4402,55.5931 C50.3252,55.5931 46.0362,52.3891 46.0362,46.3051 C46.0362,40.1651 50.1822,36.4961 56.4402,36.4961 C58.1442,36.4961 60.2612,37.0141 61.7292,38.3181 L62.3182,36.7971 L64.9602,36.7971 L64.9702,43.1371 L62.2372,43.1371 C62.1492,40.4501 60.4052,39.0251 57.4392,39.0251 C54.0302,39.0251 52.4152,41.3601 52.4152,46.0601 C52.4152,50.7591 54.0302,53.0141 57.4392,53.0141 C58.5552,53.0141 59.9042,52.6071 59.9042,51.3281 L59.9042,49.0211 C59.9042,48.3431 59.4932,47.9351 58.7592,47.9351 L57.2332,47.9351 L57.2332,45.5441 L67.9292,45.5441 L67.9292,47.9351 L66.5772,47.9351 C65.8432,47.9351 65.4292,48.3431 65.4292,49.0211 Z M65.4752,204.3471 L57.0672,204.3471 C53.5242,204.3471 50.7962,203.2851 48.9072,201.1931 C48.9072,201.2241 48.9032,204.1281 48.9032,204.1281 L24.4502,204.1281 L24.4442,194.1461 C24.4442,194.1461 27.4892,194.1191 28.3172,194.1361 C28.3172,193.9781 28.9192,194.2321 28.9192,193.3841 C28.9172,190.2361 28.9192,180.0991 28.9342,177.2731 C29.0262,176.5661 28.3372,176.6661 28.3392,176.5541 C27.4682,176.5701 24.4252,176.5391 24.4252,176.5391 L24.4522,166.4591 L33.6612,166.4721 C30.1222,164.2381 28.6772,160.9801 28.6772,157.8431 L28.6772,141.2111 L24.5732,141.2111 L24.5732,130.9901 L33.2702,130.9901 C27.7062,127.8801 24.5012,122.1091 24.5012,114.4281 C24.5012,105.9941 28.1282,100.8041 33.0732,97.9911 L29.9852,97.9911 L29.9852,88.4721 L37.1922,88.4721 L37.1922,71.4411 C35.5872,71.5171 34.4832,73.1541 34.3842,75.6901 L34.2622,78.8411 L24.3312,78.8771 L24.3312,61.1531 L61.9622,61.1531 L64.6262,61.1531 L64.6262,78.8771 L54.7062,78.8411 C54.7062,78.8411 54.5812,75.6951 54.5812,75.6941 C54.4792,73.1561 53.3762,71.5191 51.7682,71.4421 L51.7682,88.4721 L58.9712,88.4721 L58.9712,97.9911 L55.2662,97.9911 C60.2122,100.8041 63.8372,105.9941 63.8372,114.4281 C63.8372,122.1091 60.6342,127.8801 55.0692,130.9901 L61.3952,130.9901 L64.6632,130.9921 L64.7252,141.2241 L60.6382,141.2241 L60.6382,156.8591 C60.6382,161.6971 58.9032,165.1271 55.4872,167.1441 C57.9932,167.9061 59.8762,169.3471 61.1752,171.5131 L61.2182,171.5871 L61.2592,171.6641 C62.1592,173.4161 62.6552,175.4741 62.6552,177.4591 C62.6552,180.3731 61.5982,182.7551 59.5162,184.5411 L59.4662,184.5821 L59.4152,184.6231 C59.3212,184.6951 59.2022,184.7501 59.1042,184.8201 C59.3842,185.1751 59.6492,185.5481 59.8562,185.9821 C60.7862,187.7671 60.9252,189.7591 60.9252,191.6681 L60.9172,192.9061 C60.8952,194.0911 61.9642,194.1991 62.2352,194.1951 L65.4752,194.2261 L65.4752,204.3471 Z M24.5582,37.0411 L36.8682,37.0411 C41.6892,37.0411 44.5402,38.4271 44.5402,42.1491 C44.5402,45.8701 41.6892,47.2841 36.2822,47.2841 L33.0522,47.2841 L33.0522,51.5761 C33.0522,52.2531 33.4622,52.6601 34.1972,52.6601 L36.1652,52.6601 L36.1652,55.0501 L24.5872,55.0501 L24.5872,52.6601 L26.3802,52.6601 C27.1142,52.6601 27.5242,52.2531 27.5242,51.5761 L27.5242,40.5171 C27.5242,39.8381 27.1142,39.4331 26.3802,39.4331 L24.5582,39.4331 L24.5582,37.0411 Z M135.8302,10.3291 L27.9662,10.3291 C17.8112,10.3291 9.5792,18.5601 9.5792,28.7131 L9.5792,197.8831 C9.5792,208.0341 17.8112,216.2691 27.9662,216.2691 L72.5372,216.2691 C72.3402,216.2331 72.1162,216.1671 71.8522,216.0491 C69.3932,214.9581 68.8632,210.8511 69.3342,208.7421 C69.7772,204.6221 72.1752,200.4161 74.2282,198.0521 C74.6902,197.5401 75.4342,195.4161 75.5562,195.2291 C76.3562,192.8291 78.8392,192.9101 80.7562,192.3501 C85.5572,188.0341 106.8932,171.7041 109.7102,170.6001 C110.1102,166.4981 114.0482,167.5961 112.3792,165.8191 C112.3362,165.7501 108.1432,153.2261 105.2212,147.6141 C98.0442,136.7031 102.3912,129.0971 102.4602,128.9511 C102.7212,128.3901 102.4482,128.0591 102.2702,127.6481 C101.1442,125.5241 98.2542,119.5081 93.1442,111.9331 C91.9332,109.7761 87.6112,104.5551 88.0482,99.1051 C88.0862,97.8171 88.9232,94.7251 90.6742,92.1921 C87.9522,90.5931 82.7512,86.5961 82.6762,82.9191 C82.1192,79.3201 83.7772,75.2361 87.0722,73.0841 C90.5112,71.2381 94.7512,71.5631 98.3492,72.9191 C99.2512,76.0071 100.9942,76.4371 103.9282,84.1211 C103.9352,84.1421 103.9612,84.2611 103.9612,84.2611 L104.0532,84.1701 C107.4562,80.8511 115.5822,81.3601 119.7072,77.3211 C124.1822,72.6001 132.4222,71.0801 132.8992,63.4841 C134.6742,58.0601 131.6732,54.9561 131.7002,51.2071 C131.5862,51.1051 131.3442,48.7571 131.4342,48.7251 L85.7842,19.9231 C84.2162,22.4671 82.1662,29.6621 77.8802,26.8571 C76.8352,26.2141 75.2952,25.0191 75.7742,24.2081 C76.9702,21.9671 81.7162,15.8791 85.1552,17.6601 L132.3482,46.4661 L132.3712,46.4661 C132.7972,46.0031 133.8522,45.1431 135.1662,46.0751 C135.1662,46.0751 141.0452,47.6061 143.8532,52.7141 C143.8532,52.7141 143.7862,59.5101 140.9992,62.3381 C138.7992,69.2951 133.6852,82.4141 130.3702,88.8701 C124.2132,96.3871 124.4602,100.9101 118.0562,108.1901 C127.1062,145.4081 127.2702,151.5261 129.2162,169.6901 C129.6632,187.2261 129.7952,200.6321 130.3982,206.8351 C129.8762,206.8351 127.5012,207.2241 125.2472,207.7311 C126.9552,208.8501 129.1592,211.5861 130.0782,212.2671 C132.7942,214.2821 132.3282,215.8571 132.1382,216.2691 L135.8302,216.2691 C145.9812,216.2691 154.2162,208.0341 154.2162,197.8831 L154.2162,28.7131 C154.2162,18.5601 145.9812,10.3291 135.8302,10.3291 Z" id="Fill-19" fill="#ADB0B4"></path>
                <path d="M39.0137,42.1754 C39.0137,40.4894 37.6927,39.4334 36.0447,39.4334 L33.0517,39.4334 L33.0517,44.8904 L35.5757,44.8904 C37.6337,44.8904 39.0137,43.8594 39.0137,42.1754" id="Fill-21" fill="#ADB0B4"></path>
                <polygon id="Fill-23" fill="#ADB0B4" points="78.3818 41.7848 75.6828 47.8318 80.8538 47.8318"></polygon>
                <path d="M61.3369,63.817 L26.9929,63.817 L26.9929,76.203 L31.6979,76.187 L31.7219,75.588 C31.9089,70.864 34.6569,68.75 37.2999,68.75 C39.0209,68.75 39.8579,69.1 39.8579,69.823 L39.8579,88.963 C39.8579,89.991 39.1849,91.136 38.2219,91.136 L32.6509,91.136 L32.6509,95.327 L56.3099,95.327 L56.3099,91.136 L50.7409,91.136 C49.7759,91.136 49.1049,89.991 49.1049,88.963 L49.1049,69.823 C49.1049,69.1 49.9389,68.75 51.6589,68.75 C54.3019,68.75 57.0559,70.864 57.2429,75.588 L57.2669,76.187 L61.9619,76.203 L61.9619,63.817 L61.3369,63.817 Z" id="Fill-25" fill="#ADB0B4"></path>
                <path d="M62.0146,133.6539 L61.3936,133.6539 L48.5306,133.6539 L47.9056,133.6539 L47.9056,138.5469 L50.5396,138.5469 C51.4306,138.5469 52.0086,138.6949 52.3076,138.9999 C52.6256,139.3259 52.6396,139.8119 52.6236,140.5759 C52.6236,140.5799 52.6186,140.9899 52.6186,140.9899 C52.6186,140.9979 52.6146,157.9839 52.6146,157.9839 C52.5046,158.8059 51.7336,161.7479 46.5676,161.7479 C42.6126,161.7479 40.2506,160.2299 40.2506,157.6909 L40.2506,140.6929 C40.2506,138.7259 41.1666,138.5599 42.0286,138.5599 L45.1806,138.5599 L45.1806,133.6539 L27.2396,133.6539 L27.2396,138.5469 L29.2626,138.5469 C30.1556,138.5469 30.7336,138.6949 31.0326,138.9999 C31.3736,139.3489 31.3626,139.9429 31.3466,140.5699 C31.3466,140.5759 31.3406,140.9899 31.3406,140.9899 L31.3406,157.8429 C31.3406,162.0919 35.1256,166.6329 45.7506,166.6329 C56.5846,166.6329 57.9756,161.4079 57.9756,156.8589 L57.9756,140.6929 C57.9756,138.7259 58.8916,138.5599 59.7506,138.5599 L62.0456,138.5599 L62.0146,133.6539 Z" id="Fill-27" fill="#ADB0B4"></path>
                <path d="M44.3545,126.2955 C41.5005,126.2955 37.7065,125.2895 37.7065,114.4285 C37.7065,106.2745 39.8795,102.5615 44.3545,102.5615 C49.0735,102.5615 50.9975,105.8215 50.9975,114.4285 C50.9975,122.3555 48.7005,126.2955 44.3545,126.2955 M44.1705,97.9405 C35.9505,97.9405 27.1675,102.0865 27.1675,114.4285 C27.1675,124.9065 33.5225,130.9125 44.1705,130.9125 C54.8175,130.9125 61.1725,124.9065 61.1725,114.4285 C61.1725,102.0865 52.3895,97.9405 44.1705,97.9405" id="Fill-29" fill="#ADB0B4"></path>
                <path d="M40.2529,173.1022 C41.2349,173.1022 44.6409,173.1222 47.0899,173.1222 C49.3139,173.1222 50.8839,174.1002 51.3489,175.8002 C51.6239,176.8562 51.6489,178.5322 51.1669,179.8452 C50.5129,181.6312 49.0839,182.5442 47.0659,182.5442 C47.0649,182.5442 41.7409,182.5462 40.2529,182.5502 L40.2529,173.8592 L40.2529,173.1022 Z M62.3299,196.7202 C61.1349,196.7322 58.4039,196.6362 58.4039,192.9062 L58.4119,191.6522 C58.4119,190.1852 58.3499,188.5072 57.6229,187.1582 C56.9409,185.6952 55.2439,184.8492 54.3129,184.4252 C55.4999,184.0482 56.8539,183.3532 57.9339,182.5172 C59.3649,181.2892 60.1409,179.6602 60.1409,177.4582 C60.1409,175.8902 59.7499,174.2652 59.0389,172.8822 C57.5119,170.3352 54.9219,169.1652 50.8669,169.1652 C50.8569,169.1652 27.2579,169.1262 27.2579,169.1262 L27.2459,173.9232 C27.2459,173.9232 28.9629,173.9062 30.3049,173.9062 C31.6489,173.9062 31.7889,175.2242 31.7889,175.2242 C31.7889,175.2242 31.8279,190.1892 31.8319,195.0392 C31.8319,195.8242 31.1019,196.6642 30.3849,196.6642 L27.2439,196.6642 L27.2579,201.4642 L46.8009,201.4642 L46.7869,196.6652 L41.9359,196.6652 C41.2359,196.6652 40.4079,195.7262 40.4079,194.9332 C40.4079,194.9332 40.4019,188.9562 40.3999,186.9982 C40.6389,186.9982 46.1969,186.9992 46.1969,186.9992 C46.8419,186.9992 49.3519,187.3202 49.2909,190.3082 L49.2419,192.3692 C49.2739,194.1912 49.0799,195.6382 49.8789,197.6772 C51.1899,200.3862 53.5819,201.6832 57.2169,201.6832 L62.9609,201.6832 L62.9609,196.7142 L62.3299,196.7202 Z" id="Fill-31" fill="#ADB0B4"></path>
            </g>
        </g>
    </g>
</svg>